<svg id="Layer_1" data-name="Layer 1" xmlns="http://www.w3.org/2000/svg" viewBox="0 0 570.87 376.47">
  <defs>
    <style>
      .cls-1 {
        fill: #65c8d0;
      }
    </style>
  </defs>
  <title>SCLogo</title>
  <g>
    <path d="M244.66,198c-20.39-19.66-39.82-24.83-54.39-24.83-9.22,0-22.33,1.55-30.59,8.79-6.8,5.69-11.17,15.52-11.17,24.83,0,10.34,4.37,17.58,11.17,23.27,6.8,6.21,15.54,10.35,31.57,18.11l18.93,9.31c15.54,7.76,30.11,16.55,42.74,33.1,11.65,15.52,16.51,31.55,16.51,53.79,0,36.21-13.6,68.28-32.54,88.45-26.22,27.41-59.73,33.62-92.75,33.62-23.79,0-42.73-3.11-64.58-15.52-16-9.31-31.57-23.27-43.22-36.72l41.76-56.9a117.54,117.54,0,0,0,27.19,27.41,70.3,70.3,0,0,0,37.88,11.38c11.17,0,26.71-3.62,35.94-10.86,8.74-7.24,13.59-19.14,13.59-32.07,0-12.41-5.34-19.65-9.22-23.79-2.43-2.58-8.75-8.27-25.74-15.51l-18.94-8.28c-5.34-2.07-30.11-13.45-45.65-30.52s-21.36-36.72-21.36-58.44c0-35.69,13.59-61.55,29.13-78.11,26.23-27.41,59.73-32.58,87.41-32.58s59.73,5.69,93.72,34.14Z" transform="translate(-21 -89.93)"/>
    <path d="M555.45,447.79c-10.69,5.69-36.91,18.62-78.67,18.62-61.19,0-96.64-27.93-114.12-46C341.78,398.13,319,360.89,319,300.89s21.36-109.13,51.47-141.2c27.19-29,70.41-53.79,129.66-53.79,50,0,80.12,17.59,91.78,24.83L582.64,215c-13.11-14-37.88-34.65-81.1-34.65-31.07,0-56.33,8.79-76.72,32.59-19.91,22.75-29.14,53.79-29.14,81.2,0,29,10.69,55.34,25.25,70.86s38.85,26.9,68.47,26.9c32.06,0,57.79-14.49,75.76-30Z" transform="translate(-21 -89.93)"/>
  </g>
  <g>
    <path class="cls-1" d="M229.32,182c-20.39-19.65-39.82-24.83-54.38-24.83-9.23,0-22.34,1.56-30.6,8.8-6.8,5.69-11.17,15.51-11.17,24.82,0,10.35,4.37,17.59,11.17,23.28,6.8,6.21,15.54,10.34,31.57,18.1l18.94,9.31c15.54,7.76,30.1,16.55,42.73,33.1,11.65,15.52,16.51,31.56,16.51,53.8,0,36.2-13.6,68.27-32.54,88.44-26.22,27.42-59.73,33.62-92.75,33.62-23.79,0-42.73-3.1-64.58-15.52-16-9.3-31.57-23.27-43.22-36.72l41.76-56.89A117.73,117.73,0,0,0,90,368.72a70.39,70.39,0,0,0,37.88,11.38c11.17,0,26.71-3.62,35.94-10.86,8.74-7.24,13.59-19.14,13.59-32.07,0-12.41-5.34-19.66-9.22-23.79-2.43-2.59-8.74-8.28-25.74-15.52l-18.94-8.28c-5.34-2.06-30.11-13.44-45.65-30.51s-21.36-36.73-21.36-58.45c0-35.69,13.59-61.55,29.13-78.1C111.81,95.11,145.31,89.93,173,89.93s59.73,5.69,93.73,34.14Z" transform="translate(-21 -89.93)"/>
    <path class="cls-1" d="M540.11,431.82c-10.69,5.69-36.91,18.62-78.67,18.62-61.19,0-96.64-27.93-114.12-46-20.88-22.24-43.7-59.48-43.7-119.48S325,175.79,355.09,143.73c27.2-29,70.41-53.8,129.66-53.8,50,0,80.13,17.59,91.78,24.83l-9.23,84.31c-13.11-14-37.88-34.65-81.09-34.65-31.08,0-56.33,8.79-76.73,32.58-19.91,22.76-29.14,53.79-29.14,81.21,0,29,10.69,55.34,25.25,70.86S444.44,376,474.07,376c32.05,0,57.78-14.48,75.75-30Z" transform="translate(-21 -89.93)"/>
  </g>
  <polyline points="245.71 34.14 260.99 50.13 243.53 37.54"/>
  <polygon points="555.49 24.85 554.75 31.99 570.8 40.77 555.49 24.85"/>
  <polyline points="528.73 256.05 544.07 272.01 525.15 288.48"/>
  <path d="M77.37,358.26l.72-1-15.34-16,.3.43a108.06,108.06,0,0,0,14.2,16.41Z" transform="translate(-21 -89.93)"/>
</svg>
